/* XPM */
static char *BitchX-mini[] = {
/* width height num_colors chars_per_pixel */
"    16    27      111            2",
/* colors */
"  	c None",
". 	c #5A635A",
"+ 	c #4A4A4A",
"@ 	c #636363",
"# 	c #313131",
"$ 	c #000000",
"% 	c #080808",
"& 	c #101010",
"* 	c #212118",
"= 	c #312929",
"- 	c #424242",
"; 	c #4A5252",
"> 	c #42424A",
", 	c #212121",
"' 	c #181810",
") 	c #393939",
"! 	c #636B73",
"~ 	c #5A5A63",
"{ 	c #848CA5",
"] 	c #8C94AD",
"^ 	c #5A636B",
"/ 	c #7B7B7B",
"( 	c #CED6D6",
"_ 	c #848484",
": 	c #7B7B84",
"< 	c #9CA5AD",
"[ 	c #292929",
"} 	c #4A525A",
"| 	c #84847B",
"1 	c #737373",
"2 	c #424A4A",
"3 	c #397B39",
"4 	c #737B7B",
"5 	c #181818",
"6 	c #4A9C29",
"7 	c #000800",
"8 	c #081808",
"9 	c #63AD39",
"0 	c #6B8C63",
"a 	c #6BAD4A",
"b 	c #737B73",
"c 	c #294218",
"d 	c #216310",
"e 	c #424A42",
"f 	c #317B00",
"g 	c #104200",
"h 	c #213900",
"i 	c #84C642",
"j 	c #7B8C6B",
"k 	c #738C6B",
"l 	c #6B9C5A",
"m 	c #397308",
"n 	c #214A08",
"o 	c #428431",
"p 	c #212900",
"q 	c #296300",
"r 	c #081000",
"s 	c #6BAD18",
"t 	c #7BB542",
"u 	c #102908",
"v 	c #081800",
"w 	c #528400",
"x 	c #102100",
"y 	c #526B00",
"z 	c #5A9C00",
"A 	c #94CE18",
"B 	c #9CCE21",
"C 	c #B5D618",
"D 	c #4A5A00",
"E 	c #94C600",
"F 	c #425200",
"G 	c #5A9400",
"H 	c #ADE731",
"I 	c #84B521",
"J 	c #A5C642",
"K 	c #8CBD00",
"L 	c #A5CE00",
"M 	c #396B00",
"N 	c #73A500",
"O 	c #9CD642",
"P 	c #9CDE29",
"Q 	c #6BBD29",
"R 	c #639C00",
"S 	c #426B00",
"T 	c #4A7B00",
"U 	c #A5C65A",
"V 	c #ADDE4A",
"W 	c #181800",
"X 	c #4A6300",
"Y 	c #314A00",
"Z 	c #849C29",
"` 	c #637300",
" .	c #7B846B",
"..	c #A5B55A",
"+.	c #9C9C84",
"@.	c #BDCE7B",
"#.	c #D6DEB5",
"$.	c #BDCE84",
"%.	c #B5D65A",
"&.	c #737B52",
"*.	c #7B7B39",
"=.	c #949494",
"-.	c #B5ADA5",
";.	c #BDBDBD",
">.	c #9C9C9C",
",.	c #8C8C8C",
"'.	c #636339",
").	c #ADADA5",
"!.	c #6B6B6B",
"~.	c #081829",
"{.	c #B5B5B5",
". + + + + + + + + + + + + + + + ",
"@ + + + + + + + + + + + + + + + ",
"@ # $ $ % & * = - + ; > = , ' ) ",
"@ ) $ $ % & , # ; ! ! ; # , ' - ",
"@ ) $ $ % & , ) ~ { ] ^ ) , ' - ",
"@ ) ; / / / / - ! ( _ : / / / - ",
"@ ) $ / _ _ _ _ ! < _ _ _ / [ - ",
"@ ) $ - _ _ _ / } | _ _ _ _ & - ",
"@ ) $ $ / _ / 1 2 1 / / / , & - ",
"@ 3 $ $ _ 4 1 1 1 1 1 / / 5 & - ",
"@ 6 7 $ 8 9 0 a b 1 1 1 c d % e ",
"@ $ f g h $ i $ j k l k m $ n o ",
"@ $ p $ q r s $ t u $ v w $ 7 x ",
"@ $ y r z $ A $ B $ C $ z $ D $ ",
"@ $ E F G $ H $ I $ J K G $ L $ ",
"@ $ M 7 N $ O $ P $ Q $ R $ S $ ",
"@ $ p $ T $ U $ V W $ r X $ Y $ ",
"@ Z F `  ...+.@.#.$.%...&.F r Z ",
"@ *.$ $ 1 _ =.-.; ;.>.,./ $ $ '.",
"@ ) $ # 1 : ,.).$ ,.=._ 1 1 $ ) ",
"@ ) $ / 1 / ,._ $ !.,./ 1 1 $ ) ",
"@ ) . / 1 / _ * $ $ _ / 1 1 / ) ",
"@ ) ,.,._ _ _ $ $ $ _ _ _ ,._ - ",
"@ ) $ $ $ $ r $ $ $ $ $ $ $ $ ) ",
"@ ) $ $ $ $ $ $ $ $ $ $ $ $ $ ) ",
"@ ) $ $ $ $ ~.$ $ $ $ $ $ $ $ - ",
"@ {.{.{.{.{.{.{.{.{.{.{.{.{.{.{."};
