/* XPM */
static char *BitchX[] = {
/* width height num_colors chars_per_pixel */
"    32    32      203            2",
/* colors */
".. c #080808",
".# c #101010",
".a c #181818",
".b c #212121",
".c c #292929",
".d c #313131",
".e c #393939",
".f c #424242",
".g c #4a4a4a",
".h c #636363",
".i c #6b6b6b",
".j c #737373",
".k c #7b7b7b",
".l c #848484",
".m c #8c8c8c",
".n c #949494",
".o c #9c9c9c",
".p c #b5b5b5",
".q c #bdbdbd",
".r c #312929",
".s c #b5ada5",
".t c #adada5",
".u c #84847b",
".v c #cecebd",
".w c #a5a594",
".x c #949484",
".y c #c6c6ad",
".z c #9c9c84",
".A c #84846b",
".B c #212118",
".C c #525239",
".D c #181810",
".E c #636339",
".F c #7b7b39",
".G c #101000",
".H c #181800",
".I c #6b7339",
".J c #c6d663",
".K c #637300",
".L c #949c6b",
".M c #293100",
".N c #d6deb5",
".O c #adb58c",
".P c #a5ad84",
".Q c #8c946b",
".R c #737b52",
".S c #a5b55a",
".T c #bdd652",
".U c #212900",
".V c #425200",
".W c #637b00",
".X c #bdce7b",
".Y c #cee773",
".Z c #738431",
".0 c #94ad31",
".1 c #849c29",
".2 c #a5ce00",
".3 c #bdce84",
".4 c #526318",
".5 c #637b10",
".6 c #394a00",
".7 c #526b00",
".8 c #adb594",
".9 c #a5ad8c",
"#. c #a5c642",
"## c #526b08",
"#a c #4a6300",
"#b c #8cbd00",
"#c c #94c600",
"#d c #b5d65a",
"#e c #bde74a",
"#f c #a5ce39",
"#g c #9cce21",
"#h c #7ba508",
"#i c #7bad00",
"#j c #94ce00",
"#k c #9cad73",
"#l c #a5c65a",
"#m c #8cb531",
"#n c #425a08",
"#o c #395200",
"#p c #73a500",
"#q c #adde4a",
"#r c #ade731",
"#s c #84b521",
"#t c #4a6b08",
"#u c #213100",
"#v c #639400",
"#w c #84b529",
"#x c #6b9c10",
"#y c #395208",
"#z c #314a00",
"#A c #7b846b",
"#B c #73a521",
"#C c #294200",
"#D c #528400",
"#E c #639c00",
"#F c #9cde39",
"#G c #73a529",
"#H c #426b00",
"#I c #4a7b00",
"#J c #5a9400",
"#K c #73bd00",
"#L c #7bb529",
"#M c #527b18",
"#N c #213900",
"#O c #528c00",
"#P c #8cd631",
"#Q c #6bad18",
"#R c #848c7b",
"#S c #8cce42",
"#T c #84ce31",
"#U c #396b00",
"#V c #63bd00",
"#W c #84c642",
"#X c #6ba531",
"#Y c #081000",
"#Z c #4a9400",
"#0 c #7b8c6b",
"#1 c #7bb542",
"#2 c #102100",
"#3 c #5ab500",
"#4 c #7b8473",
"#5 c #397308",
"#6 c #84c652",
"#7 c #396318",
"#8 c #296300",
"#9 c #639442",
"a. c #7bc64a",
"a# c #294218",
"aa c #5a9c31",
"ab c #529429",
"ac c #317b00",
"ad c #73ad52",
"ae c #63ad39",
"af c #427b21",
"ag c #295210",
"ah c #214a08",
"ai c #215a00",
"aj c #63944a",
"ak c #6bb542",
"al c #214210",
"am c #8c9c84",
"an c #293921",
"ao c #6bad4a",
"ap c #63a542",
"aq c #081800",
"ar c #103100",
"as c #216300",
"at c #297b00",
"au c #6ba552",
"av c #4aa521",
"aw c #216b00",
"ax c #637b5a",
"ay c #4a9c29",
"az c #738c6b",
"aA c #84b573",
"aB c #6b9c5a",
"aC c #102908",
"aD c #104200",
"aE c #428431",
"aF c #216310",
"aG c #104a00",
"aH c #6b8c63",
"aI c #426b39",
"aJ c #527b4a",
"aK c #083900",
"aL c #e7efe7",
"aM c #adb5ad",
"aN c #737b73",
"aO c #5a635a",
"aP c #424a42",
"aQ c #6b7b6b",
"aR c #395239",
"aS c #397b39",
"aT c #081808",
"aU c #000800",
"aV c #ced6d6",
"aW c #737b7b",
"aX c #4a5252",
"aY c #424a4a",
"aZ c #394242",
"a0 c #101818",
"a1 c #94a5ad",
"a2 c #a5b5bd",
"a3 c #9ca5ad",
"a4 c #5a636b",
"a5 c #a5adb5",
"a6 c #636b73",
"a7 c #4a525a",
"a8 c #081829",
"a9 c #737b8c",
"b. c #8c94ad",
"b# c #848ca5",
"ba c #737b94",
"bb c #7b7b84",
"bc c #52525a",
"bd c #5a5a63",
"be c #42424a",
"bf c #6b6b7b",
"bg c #73738c",
"bh c #000008",
"bi c #000000",
/* pixels */
"aOaO.g.g.g.g.g.g.g.g.g.g.g.g.g.g.g.g.g.g.g.g.g.g.g.g.g.g.g.g.g.g",
"aOaO.g.g.g.g.g.g.g.g.g.g.g.g.g.g.g.g.g.g.g.g.g.g.g.g.g.g.g.g.g.g",
".h.h.dbibibibibi.....#.#.B.b.r.d.f.f.gaXaXaXbeaZ.r.r.b.B.D.#.e.m",
".h.h.ebibibibibi.....#a0.b.b.d.dbebebcbdbdbcaY.f.d.d.b.B.D.#.f.o",
".h.h.ebibibibibi.....#.a.b.c.d.ebcbcbgbaa9bfbcaX.e.e.b.b.D.D.f.o",
".h.h.ebibibibibi.....#a0.b.c.e.fbdbdb#a1b.baa4aX.e.e.b.b.D.#.f.o",
".h.h.ebiaX.l.k.k.k.k.k.k.k.k.f.fa6a6aVaL.l.lbb.k.k.k.k.k.kaO.f.o",
".h.h.ebi...i.l.l.l.l.l.l.l.l.iaZbfbfaVaM.k.u.l.l.l.l.l.k.i.a.f.o",
".h.h.ebibibi.f.l.l.l.l.l.l.l.k.la7a7.u.k.l.l.l.l.l.l.l.g.#.#.f.o",
".h.h.ebibibi.f.l.l.l.l.l.l.l.k.la7a7.u.k.l.l.l.l.l.l.l.g.#.#.f.o",
".h.haRbibibibibi.k.k.k.k.k.j.j.j.j.j.j.j.j.k.k.k.k.k.a.a.#...f.o",
".h.haSbibibibibi.l.laWaN.j.j.j.j.j.j.j.j.j.j.k.k.k.k.aa0.#...f.o",
".h.hayaGaUbibibiaTaTaeapaHaHaoauaNaN.j.j.j.j.j.ja#a#aFal....aP.o",
".h.hah#2aDaUaUaU#2#2aq#Yadajalal#4#4aNaNaQaQaN.kagagarahaT..aI.o",
".h.hbibi#3atasaw#N#N#i#h#T#QbibiaBaBakaaafafaeaf#I#Ibi#HacasavaA",
".h.hbibi.Ubibi#Y#8#8#Y#Y#Q#2bibi#1#1aCbibibiaqaD#D#Dbi.MaUbi#2aa",
".h.hbibi#c#p.Vbi#J#Jbibi#r#gbibi#s#sbi#n#.#f#b#b#J#Jbi.6.2.Wbibi",
".h.hbibi#c#p.Vbi#J#Jbibi#r#gbibi#s#sbi#n#.#f#b#b#J#Jbi.6.2.Wbibi",
".h.hbibibibibibi#p#pbibi#q#mbibi#r#rbibiaUbibibi#J#Jbi#z#U#Hbibi",
".h.hbibi.Ubibi#Y#I#Ibibi#l#lbibi#q#q.Hbibibi#Y#n#a#abi#z#z#obibi",
".h.h.1.V.V.7.K.V#A#A.S.S.z.w.X.Y.N.N.3.J#d.T.S.L.R.R.V.M#Y.U.1#k",
".h.h.Zbi.G.G.G#Y.u.u#R.x.o.w.s.y.o.o.q.8.9.zam.m.u.u#Y#Ybi#Y.I.o",
".h.h.Cbibibibi.f.j.j.l.l.n.oaM.obibi.paM.o.n.l.l.j.j.bbibibi.f.o",
".h.h.ebibibi.d.l.j.jbb.l.m.n.t.lbibi.maM.n.m.l.k.j.j.j.#bibi.e.o",
".h.h.ebibi.i.j.j.j.j.k.k.l.m.hbibibi.b.l.m.l.k.k.j.j.j.j.ebi.e.o",
".h.h.ebibi.i.j.j.j.j.k.k.l.m.hbibibi.b.l.m.l.k.k.j.j.j.j.ebi.e.o",
".h.h.e.d.m.m.m.m.l.l.l.l.l.hbibibibibibi.l.l.l.l.l.l.m.m.l.m.f.o",
".h.h.e.d.e.e.e.e.e.e.e.e.f.abibibibibibi.d.f.e.e.e.e.e.e.e.eaO.o",
".h.h.ebibibibibibibibibi...abibibibibibibibibibibibibibibibi.e.o",
".h.h.ebibibibibibibibibibibibibibibibibibibibibibibibibibibi.e.o",
".h.h.ebibibibibibibibibia8bibibibibibibibibibibibibibibibibi.f.o",
".h.haM.p.p.p.p.p.p.p.p.p.p.p.p.p.p.p.p.p.p.p.p.p.p.p.p.p.p.p.p.t"
};
